<svg width="843" height="843" viewBox="0 0 843 843" fill="none" xmlns="http://www.w3.org/2000/svg">
<rect width="843" height="843" fill="#F5F5F5"/>
<g clip-path="url(#clip0_252_52)">
<path d="M823 0H20C8.9543 0 0 8.9543 0 20V823C0 834.046 8.9543 843 20 843H823C834.046 843 843 834.046 843 823V20C843 8.9543 834.046 0 823 0Z" fill="black" fill-opacity="0.2"/>
<path d="M64.9968 312.513C59.6623 313.881 54.8893 319.082 54.047 324.693C53.2047 329.893 63.4526 370.129 102.76 516.154C105.146 524.776 108.235 536.135 109.638 541.473C114.411 559.127 122.413 589.099 130.696 620.849C146.699 681.203 169.16 763.179 171.828 770.707C172.81 773.307 175.618 776.865 178.285 778.507L183.058 781.655H268.13C349.551 781.655 353.342 781.518 357.553 779.055C362.747 775.907 364.572 771.254 370.609 745.388C381.839 697.215 418.479 554.2 420.023 552.558C420.725 551.874 421.567 551.6 421.988 552.011C423.392 553.242 444.028 634.809 468.314 734.987C474.07 758.526 478.422 773.581 479.826 775.223C486.003 781.792 484.739 781.655 573.741 781.655H657.69L662.322 778.507C667.517 775.086 666.815 777.276 679.589 729.65C684.362 711.995 691.241 686.403 695.031 672.855C703.735 641.104 706.262 631.387 722.967 568.844C739.533 507.122 752.728 459.085 758.203 440.199C760.449 432.672 765.082 415.428 768.732 401.88C790.211 320.724 789.789 323.05 784.314 316.755L780.945 312.923L702.051 312.513C624.56 312.239 623.156 312.239 618.523 314.976C615.856 316.481 613.189 319.766 612.206 322.229C611.364 324.556 607.573 341.115 603.643 358.77C593.535 405.027 590.447 418.987 586.376 436.778C584.41 445.4 578.936 469.76 574.303 490.836C562.651 542.978 557.457 564.054 556.194 564.054C555.071 564.054 554.93 563.507 544.963 522.997C529.381 459.907 508.323 371.497 501.866 341.663C499.9 332.63 497.374 323.187 496.25 320.724C492.741 312.376 491.758 312.239 420.163 312.239H355.728L350.955 315.387C344.919 319.355 346.182 314.976 318.106 436.778C311.087 467.023 295.223 534.082 290.591 553.379C288.906 560.085 287.222 565.423 286.66 565.423C285.537 565.423 277.395 530.798 259.005 448.411C251.003 412.281 243.422 378.751 242.299 373.824C241.176 368.897 238.369 356.033 235.982 345.221C230.928 322.366 228.963 317.303 224.471 314.702C221.944 313.334 204.817 312.786 145.015 312.239C103.181 311.828 67.1026 311.965 64.9968 312.513Z" fill="black"/>
<path d="M346.868 108.047C344.622 109.005 341.393 111.195 339.849 112.974C337.182 115.848 337.042 118.175 336.62 183.318C336.199 258.589 336.199 257.631 346.166 262.558C350.659 264.747 356.555 264.884 421.973 264.611C500.165 264.2 498.481 264.337 502.833 255.578C504.798 251.336 505.079 243.261 505.36 184.276L505.5 117.764L502.271 113.385C500.306 110.648 497.077 108.458 493.848 107.5C485.566 105.31 352.203 105.721 346.868 108.047Z" fill="#E61E1E"/>
</g>
<defs>
<clipPath id="clip0_252_52">
<rect width="843" height="843" fill="white"/>
</clipPath>
</defs>
</svg>
