<svg width="1554" height="1371" viewBox="0 0 1554 1371" fill="none" xmlns="http://www.w3.org/2000/svg">
<path d="M23.2985 419.04C11.9965 421.817 1.88418 432.369 0.0996561 443.755C-1.68487 454.308 20.0268 535.952 103.305 832.259C108.361 849.754 114.904 872.804 117.878 883.634C127.991 919.457 144.944 980.274 162.492 1044.7C196.397 1167.17 243.985 1333.51 249.636 1348.78C251.718 1354.06 257.666 1361.28 263.317 1364.61L273.43 1371H453.667C626.171 1371 634.201 1370.72 643.124 1365.72C654.128 1359.34 657.995 1349.89 670.784 1297.41C694.578 1199.66 772.204 909.46 775.476 906.128C776.963 904.739 778.748 904.184 779.64 905.017C782.614 907.516 826.335 1073.03 877.789 1276.3C889.983 1324.07 899.203 1354.62 902.177 1357.95C915.264 1371.28 912.587 1371 1101.15 1371H1279.01L1288.82 1364.61C1299.83 1357.67 1298.34 1362.11 1325.41 1265.47C1335.52 1229.65 1350.09 1177.72 1358.12 1150.23C1376.56 1085.8 1381.92 1066.08 1417.31 939.174C1452.41 813.931 1480.36 716.458 1491.96 678.135C1496.72 662.861 1506.54 627.871 1514.27 600.379C1559.78 435.702 1558.88 440.423 1547.28 427.649L1540.15 419.873L1372.99 419.04C1208.82 418.484 1205.84 418.484 1196.03 424.038C1190.38 427.093 1184.73 433.758 1182.65 438.757C1180.86 443.478 1172.83 477.079 1164.5 512.903C1143.09 606.766 1136.55 635.091 1127.92 671.193C1123.76 688.688 1112.16 738.119 1102.34 780.884C1077.66 886.689 1066.65 929.455 1063.97 929.455C1061.6 929.455 1061.3 928.344 1040.18 846.144C1007.17 718.124 962.554 538.729 948.872 478.19C944.709 459.862 939.355 440.701 936.976 435.702C929.54 418.762 927.458 418.484 775.774 418.484H639.257L629.145 424.872C616.356 432.925 619.033 424.038 559.549 671.193C544.677 732.564 511.069 868.638 501.254 907.794C497.685 921.401 494.116 932.232 492.926 932.232C490.547 932.232 473.296 861.973 434.334 694.797C417.381 621.484 401.321 553.447 398.941 543.45C396.562 533.453 390.613 507.349 385.557 485.41C374.85 439.034 370.686 428.759 361.169 423.483C355.815 420.706 319.53 419.595 192.828 418.484C104.197 417.651 27.7598 417.929 23.2985 419.04Z" fill="black"/>
<path d="M619.047 4.03125C614.276 5.97558 607.417 10.4198 604.137 14.0306C598.472 19.8636 598.174 24.5855 597.279 156.8C596.384 309.568 596.384 307.624 617.556 317.623C627.098 322.067 639.622 322.345 778.578 321.789C944.669 320.956 941.091 321.234 950.334 303.457C954.509 294.847 955.105 278.459 955.702 158.744L956 23.7523L949.142 14.864C944.967 9.30874 938.109 4.86457 931.25 2.92024C913.657 -1.52393 630.378 -0.690679 619.047 4.03125Z" fill="#E61E1E"/>
</svg>
