<svg width="4188" height="738" viewBox="0 0 4188 738" fill="none" xmlns="http://www.w3.org/2000/svg">
<path d="M1364.56 1.50867C1362.17 2.19293 1359.09 3.97205 1357.54 5.61432C1355.01 8.35144 1354.87 11.7728 1354.17 70.3472C1353.47 134.806 1353.33 136.449 1347.15 139.596C1345.75 140.281 1334.8 140.965 1322.59 140.965C1298.16 140.965 1294.37 141.923 1289.6 149.587C1286.79 153.829 1286.79 158.619 1286.79 421.93C1286.79 687.568 1286.79 689.895 1289.6 695.232C1294.79 705.222 1292.12 704.949 1373.69 704.538C1445.14 704.128 1446.68 704.128 1450.61 701.254C1452.72 699.748 1455.25 696.327 1456.23 693.727C1458.76 686.884 1458.76 14.3731 1456.23 9.72003C1455.39 7.94086 1452.72 5.06689 1450.61 3.56146C1446.82 0.824341 1444.86 0.6875 1407.8 0.413818C1386.46 0.276917 1366.95 0.6875 1364.56 1.50867Z" fill="black"/>
<path d="M1534.28 2.05609C1531.76 3.15094 1528.39 6.0249 1526.84 8.48828L1524.03 13.0046L1524.88 353.092C1525.58 631.594 1526.14 693.863 1527.68 696.737C1531.9 704.812 1532.32 704.812 1611.07 704.812C1682.39 704.812 1682.95 704.812 1687.16 701.938C1695.72 695.916 1695.3 703.306 1695.3 544.006V397.981L1699.37 394.012L1703.44 390.043H1775.6C1845.37 390.043 1847.76 389.906 1852.25 387.306C1860.95 382.105 1860.95 381.695 1860.95 311.351C1860.95 257.429 1860.67 247.028 1858.85 243.607C1854.35 235.122 1857.58 235.396 1777.71 235.396H1704.85L1700.07 230.743L1695.3 226.089V196.392V166.694L1699.37 162.725L1703.44 158.756L1772.79 158.619C1810.84 158.619 1843.97 158.209 1846.21 157.935C1848.6 157.525 1851.97 156.293 1853.65 155.198C1860.81 150.682 1860.95 148.766 1860.95 77.8743C1860.95 18.3419 1860.67 11.636 1858.57 8.07776C1853.37 -0.407349 1862.22 0.00323486 1692.91 0.00323486C1563.76 0.140076 1538.07 0.413818 1534.28 2.05609Z" fill="black"/>
<path d="M1937.21 4.86359C1934.96 5.82158 1931.73 8.01128 1930.19 9.79041C1927.52 12.6644 1927.38 14.9909 1926.96 80.1344C1926.54 155.405 1926.54 154.447 1936.5 159.374C1941 161.564 1946.89 161.701 2012.31 161.427C2090.5 161.016 2088.82 161.153 2093.17 152.394C2095.14 148.152 2095.42 140.077 2095.7 81.0924L2095.84 14.5804L2092.61 10.201C2090.64 7.46387 2087.41 5.27417 2084.19 4.31618C2075.9 2.12648 1942.54 2.53703 1937.21 4.86359Z" fill="#E61E1E"/>
<path d="M2374.05 230.742C2372.5 231.153 2366.19 232.385 2360.01 233.48C2337.83 237.722 2307.09 251.955 2296.28 263.314C2294.31 265.23 2292.35 266.872 2291.64 266.872C2291.08 266.872 2290.52 262.219 2290.52 256.608C2290.52 250.997 2289.82 244.839 2288.84 242.923C2285.47 235.532 2284.2 235.396 2222.43 235.396C2160.81 235.396 2160.67 235.396 2155.61 242.786C2152.81 246.891 2151.96 689.895 2154.77 695.232C2155.75 697.011 2158.7 700.022 2161.23 701.664L2166 704.812H2233.24C2306.1 704.812 2307.37 704.675 2312.28 697.422C2314.53 694.137 2314.81 682.367 2315.37 546.333C2315.93 408.108 2316.21 398.665 2318.46 395.517C2322.81 389.495 2326.32 388.674 2348.22 388.674C2370.68 388.674 2376.15 389.769 2379.94 395.243C2382.33 398.802 2382.47 406.876 2383.17 546.88C2383.87 692.495 2383.87 694.958 2386.68 697.969C2393.14 704.949 2392.16 704.812 2468.38 704.812C2536.47 704.812 2539.84 704.675 2544.19 702.075C2546.58 700.706 2549.38 698.106 2550.51 696.327C2551.91 693.863 2552.33 663.208 2552.61 549.48C2552.89 458.471 2553.6 403.865 2554.44 400.718C2555.28 397.981 2557.53 394.422 2559.63 392.917C2563 390.317 2565.11 390.043 2587.99 390.043C2608.63 390.043 2613.26 390.453 2616.07 392.233C2623.51 397.296 2623.23 392.643 2623.23 546.743C2623.23 704.264 2622.8 696.6 2631.93 702.075C2636.42 704.675 2638.81 704.812 2708.44 704.812H2780.17L2784.52 701.254C2786.91 699.338 2789.58 695.506 2790.42 692.768C2791.4 689.21 2791.68 641.721 2791.26 531.689C2790.7 362.124 2790.84 366.641 2782.56 338.722C2767.54 287.675 2725.42 247.849 2672.36 234.574C2654.67 230.058 2621.12 228.553 2601.89 231.29C2568.2 235.943 2533.94 251.408 2512.04 272.073L2506.85 276.863L2495.06 265.914C2478.21 250.039 2460.24 240.596 2434.13 233.89C2425.71 231.7 2417.85 230.879 2400.02 230.606C2387.24 230.332 2375.59 230.332 2374.05 230.742Z" fill="black"/>
<path d="M969.525 232.248C921.515 236.901 886.279 248.944 848.656 273.442C816.509 294.381 786.748 326.542 769.481 358.84C735.789 421.93 731.578 494.19 757.829 559.744C777.062 607.644 811.174 646.785 858.624 675.661C883.892 690.989 912.25 701.254 945.239 707.138C966.016 710.833 1005.6 710.56 1027.92 706.591C1104.29 693.042 1170.27 644.458 1203.82 576.851C1221.51 541.543 1228.39 511.024 1228.39 469.419C1228.39 439.311 1225.58 421.93 1216.04 393.738C1208.6 371.704 1202.42 358.566 1191.61 342.691C1160.3 296.297 1115.94 262.493 1062.74 244.565C1033.82 234.711 995.356 229.648 969.525 232.248ZM1010.52 396.338C1023.29 400.444 1031.71 405.918 1041.4 415.772C1050.39 424.941 1055.72 433.563 1060.35 445.743C1064.42 456.692 1064.84 479.547 1061.34 491.453C1053.9 516.087 1034.8 535.931 1010.24 544.143C995.777 549.07 974.298 549.207 960.12 544.28C940.045 537.574 924.322 523.614 914.776 504.318C899.615 473.799 905.371 439.585 929.657 415.635C951.557 393.875 981.598 386.621 1010.52 396.338Z" fill="black"/>
<path d="M10.9968 235.669C5.66232 237.038 0.88933 242.238 0.0470375 247.85C-0.795255 253.05 9.45263 293.286 48.7596 439.311C51.1461 447.933 54.2345 459.292 55.6383 464.63C60.4113 482.284 68.4131 512.255 76.6956 544.006C92.6992 604.36 115.16 686.336 117.828 693.863C118.81 696.464 121.618 700.022 124.285 701.664L129.058 704.812H214.13C295.551 704.812 299.342 704.675 303.553 702.212C308.747 699.064 310.572 694.411 316.609 668.545C327.839 620.372 364.479 477.357 366.023 475.715C366.725 475.031 367.567 474.757 367.988 475.167C369.392 476.399 390.028 557.965 414.314 658.144C420.07 681.683 424.422 696.737 425.826 698.38C432.003 704.949 430.739 704.812 519.741 704.812H603.69L608.322 701.664C613.517 698.243 612.815 700.433 625.589 652.807C630.362 635.152 637.241 609.56 641.031 596.011C649.735 564.261 652.262 554.544 668.967 492.001C685.533 430.279 698.729 382.242 704.203 363.356C706.45 355.829 711.082 338.585 714.732 325.036C736.211 243.881 735.789 246.207 730.314 239.912L726.945 236.08L648.051 235.669C570.56 235.396 569.156 235.396 564.523 238.133C561.856 239.638 559.189 242.923 558.206 245.386C557.364 247.713 553.573 264.272 549.643 281.927C539.535 328.184 536.447 342.143 532.376 359.935C530.41 368.557 524.935 392.917 520.303 413.993C508.651 466.135 503.457 487.211 502.194 487.211C501.071 487.211 500.93 486.663 490.963 446.154C475.381 383.063 454.323 294.654 447.866 264.82C445.9 255.787 443.374 246.344 442.25 243.881C438.741 235.533 437.758 235.396 366.163 235.396H301.728L296.955 238.543C290.919 242.512 292.182 238.133 264.106 359.935C257.087 390.18 241.223 457.239 236.591 476.536C234.906 483.242 233.222 488.579 232.66 488.579C231.537 488.579 223.395 453.955 205.005 371.567C197.003 335.437 189.422 301.908 188.299 296.981C187.176 292.054 184.369 279.19 181.982 268.378C176.928 245.523 174.963 240.459 170.471 237.859C167.944 236.491 150.817 235.943 91.0146 235.396C49.1808 234.985 13.1026 235.122 10.9968 235.669Z" fill="black"/>
<path d="M1931.7 237.996C1929.32 239.501 1926.65 242.649 1925.67 245.112C1924.55 248.26 1924.12 309.435 1924.12 469.693C1924.12 712.065 1923.56 696.464 1932.83 702.075C1937.32 704.675 1939.71 704.812 2008.07 704.812C2084.86 704.812 2085.56 704.812 2090.76 697.148C2093.14 693.453 2093.28 683.736 2093.71 472.841C2093.99 319.836 2093.71 250.997 2092.58 247.439C2091.74 244.702 2089.21 240.87 2086.83 238.954L2082.48 235.396H2009.34C1939.85 235.396 1935.78 235.533 1931.7 237.996Z" fill="black"/>
<path d="M3006.61 495.148C3004.78 498.57 2983.31 551.533 2969.97 585.747C2963.93 601.212 2953.68 627.078 2947.23 643.227C2927.71 691.537 2913.54 727.119 2911.57 732.457L2909.75 737.657H2921.96H2934.17L2964.92 659.923C2981.9 617.224 3000.29 570.556 3006.05 556.323C3025.56 507.465 3030.33 495.148 3030.33 493.917C3030.33 493.232 3025.28 492.685 3019.1 492.685C3009.84 492.685 3007.73 493.096 3006.61 495.148Z" fill="black"/>
<path d="M4100.75 508.287C4064.81 516.772 4046.56 549.48 4046.7 604.907C4046.7 646.922 4055.26 673.061 4074.64 690.031C4091.34 704.675 4119.28 708.233 4144.55 699.064C4155.64 695.095 4169.54 681.683 4175.71 668.956C4188.77 642.132 4191.86 596.011 4182.87 561.66C4174.73 530.594 4157.6 512.529 4131.77 507.876C4121.24 505.96 4109.73 506.097 4100.75 508.287ZM4133.74 530.457C4136.83 531.689 4141.88 535.384 4144.97 538.805C4156.06 551.122 4160.97 572.198 4160.97 607.644C4160.83 641.037 4156.48 658.281 4144.97 671.145C4135.7 681.273 4120.26 685.241 4105.52 681.136C4091.06 676.893 4083.06 667.176 4077.3 646.237C4072.81 629.952 4072.11 589.853 4075.9 571.788C4081.52 545.101 4090.92 532.51 4108.05 528.268C4114.79 526.625 4126.44 527.72 4133.74 530.457Z" fill="black"/>
<path d="M4107.63 589.716C4100.61 593.958 4098.36 602.991 4102.29 611.065C4108.75 624.477 4130.51 621.056 4133.04 606.276C4135.56 591.906 4120.4 582.052 4107.63 589.716Z" fill="black"/>
<path d="M3228.13 509.381C3227.85 510.613 3221.67 613.803 3221.81 614.076C3222.1 614.35 3227.01 614.897 3232.9 615.308L3243.57 616.266L3249.19 611.339C3259.44 602.307 3268.28 599.159 3282.88 599.296C3295.37 599.296 3304.64 602.717 3311.94 609.697C3319.38 617.087 3322.33 625.846 3322.33 641.174C3322.33 661.155 3316.71 671.83 3302.96 678.399C3295.94 681.82 3293.41 682.231 3281.48 682.231C3269.26 682.231 3267.3 681.82 3258.88 677.714C3250.45 673.746 3242.31 666.766 3236.41 658.555L3234.17 655.407L3224.9 661.839C3219.85 665.397 3215.64 668.819 3215.64 669.229C3215.64 670.872 3223.64 680.999 3228.83 686.063C3238.94 695.916 3251.44 701.117 3271.37 703.58C3295.52 706.591 3319.24 699.748 3332.44 685.926C3344.23 673.746 3349 660.334 3349 639.805C3349 619.003 3343.53 604.907 3331.03 593C3318.96 581.368 3299.45 575.893 3280.92 578.767C3269.4 580.41 3255.09 586.979 3250.17 592.59C3245.12 598.612 3243.43 597.927 3244.42 590.127C3244.84 586.568 3245.82 572.062 3246.52 557.828C3247.22 543.732 3248.07 531.826 3248.35 531.552C3248.63 531.278 3265.89 530.868 3286.67 530.731C3307.45 530.594 3327.8 530.32 3331.87 529.91L3339.17 529.362V519.235V509.108H3283.72C3253.26 509.108 3228.27 509.245 3228.13 509.381Z" fill="black"/>
<path d="M3382.69 536.479V563.85H3393.92H3405.01L3405.43 547.017L3405.85 530.32L3445.72 529.91C3467.76 529.773 3486.15 530.047 3486.71 530.594C3487.28 531.278 3483.63 540.585 3478.57 551.533C3466.92 576.852 3412.03 696.737 3411.19 699.064C3410.63 700.433 3413.44 700.706 3424.24 700.433L3438 700.022L3459.9 652.122C3471.97 625.709 3489.24 587.937 3498.23 567.956L3514.65 531.689V520.33V509.108H3448.67H3382.69V536.479Z" fill="black"/>
<path d="M3548.77 580.547C3549.47 655.544 3549.75 658.828 3556.21 672.924C3565.61 693.863 3590.46 706.18 3619.38 704.401C3652.37 702.212 3672.72 683.873 3677.5 651.985C3678.2 646.785 3678.9 612.708 3678.9 575.757V508.971L3666.27 509.381L3653.77 509.792L3653.21 580.273C3652.79 657.733 3652.65 658.418 3643.94 670.187C3637.49 678.809 3628.92 682.231 3613.62 682.231C3602.39 682.231 3600.15 681.683 3593.97 678.399C3590.18 676.346 3585.26 672.24 3583.16 669.503C3575.44 658.828 3575.16 655.544 3574.74 579.315L3574.31 509.108H3561.12H3548.06L3548.77 580.547Z" fill="black"/>
<path d="M3721.43 514.171C3722 517.045 3722.42 560.155 3722.42 609.971V700.706H3755.55C3791.77 700.706 3802.29 699.338 3816.47 692.632C3832.48 685.105 3845.39 667.587 3851.71 644.595C3854.52 634.331 3854.94 629.678 3855.08 604.907C3855.08 579.725 3854.8 575.757 3851.85 566.177C3843.29 537.026 3828.26 520.604 3802.57 512.255C3797.66 510.613 3787.27 509.929 3758.35 509.518L3720.59 508.834L3721.43 514.171ZM3799.63 535.247C3810.3 540.174 3815.35 544.553 3820.4 553.997C3827.7 567.408 3829.67 577.809 3829.67 604.223C3829.81 650.069 3819.7 670.324 3793.31 677.304C3790.22 678.125 3778.71 679.083 3767.76 679.63L3747.69 680.588V605.591V530.731L3769.87 531.278C3790.08 531.689 3792.47 531.963 3799.63 535.247Z" fill="black"/>
<path d="M3928.36 516.498C3924.85 520.604 3914.6 530.184 3905.62 537.984L3889.33 552.217L3889.75 561.113L3890.17 570.009L3894.95 570.146C3899.02 570.282 3901.55 568.777 3910.39 561.387C3916.29 556.46 3926.81 546.88 3933.97 540.174C3942.96 531.415 3947.17 528.404 3947.73 529.773C3948.15 530.868 3948.29 564.945 3948.15 605.591L3947.73 679.494L3920.78 679.904L3893.68 680.178V690.442V700.706H3958.26H4022.84V690.442V680.178H3997.57H3972.3V594.643V509.108H3953.63H3934.96L3928.36 516.498Z" fill="black"/>
</svg>
