<svg width="3557" height="605" viewBox="0 0 3557 605" fill="none" xmlns="http://www.w3.org/2000/svg">
<rect width="3557" height="605" fill="#F5F5F5"/>
<path d="M1158.96 1.23751C1156.94 1.79874 1154.31 3.25791 1153 4.60485C1150.86 6.84973 1150.74 9.65585 1150.14 57.6965C1149.54 110.564 1149.43 111.911 1144.18 114.492C1142.99 115.053 1133.69 115.615 1123.31 115.615C1102.57 115.615 1099.35 116.4 1095.29 122.686C1092.91 126.166 1092.91 130.094 1092.91 346.052C1092.91 563.919 1092.91 565.827 1095.29 570.205C1099.71 578.398 1097.44 578.174 1166.71 577.837C1227.4 577.5 1228.71 577.5 1232.05 575.143C1233.84 573.909 1235.99 571.102 1236.82 568.97C1238.97 563.358 1238.97 11.7885 1236.82 7.97218C1236.11 6.513 1233.84 4.15587 1232.05 2.92118C1228.83 0.676291 1227.16 0.564047 1195.69 0.339558C1177.56 0.227313 1160.99 0.564047 1158.96 1.23751Z" fill="black"/>
<path d="M1303.11 1.68629C1300.97 2.58424 1298.11 4.94138 1296.8 6.96178L1294.41 10.6658L1295.13 289.593C1295.72 518.011 1296.2 569.082 1297.51 571.439C1301.09 578.061 1301.45 578.061 1368.33 578.061C1428.9 578.061 1429.38 578.061 1432.96 575.704C1440.23 570.766 1439.87 576.827 1439.87 446.174V326.409L1443.33 323.154L1446.79 319.899H1508.07C1567.33 319.899 1569.36 319.787 1573.17 317.654C1580.56 313.389 1580.56 313.052 1580.56 255.359C1580.56 211.134 1580.33 202.604 1578.78 199.798C1574.96 192.839 1577.7 193.063 1509.86 193.063H1447.98L1443.93 189.247L1439.87 185.43V161.073V136.716L1443.33 133.461L1446.79 130.206L1505.69 130.094C1538 130.094 1566.14 129.757 1568.05 129.533C1570.07 129.196 1572.93 128.186 1574.36 127.288C1580.45 123.584 1580.56 122.012 1580.56 63.8697C1580.56 15.0434 1580.33 9.5434 1578.54 6.62504C1574.13 -0.334112 1581.64 0.00262098 1437.85 0.00262098C1328.15 0.114865 1306.33 0.339354 1303.11 1.68629Z" fill="black"/>
<path d="M1645.33 3.98893C1643.42 4.77464 1640.68 6.57055 1639.37 8.02973C1637.1 10.3869 1636.98 12.295 1636.63 65.7234C1636.27 127.458 1636.27 126.672 1644.73 130.713C1648.55 132.509 1653.56 132.621 1709.12 132.397C1775.53 132.06 1774.1 132.172 1777.8 124.988C1779.46 121.509 1779.7 114.886 1779.94 66.5091L1780.06 11.9583L1777.32 8.36647C1775.65 6.12158 1772.91 4.32567 1770.16 3.53996C1763.13 1.74404 1649.86 2.08077 1645.33 3.98893Z" fill="#E61E1E"/>
<path d="M2016.35 189.247C2015.04 189.584 2009.68 190.594 2004.43 191.492C1985.59 194.971 1959.48 206.645 1950.3 215.961C1948.63 217.532 1946.96 218.879 1946.36 218.879C1945.89 218.879 1945.41 215.063 1945.41 210.461C1945.41 205.859 1944.81 200.808 1943.98 199.237C1941.12 193.175 1940.05 193.063 1887.58 193.063C1835.24 193.063 1835.12 193.063 1830.83 199.124C1828.45 202.492 1827.73 565.827 1830.11 570.204C1830.95 571.664 1833.45 574.133 1835.6 575.48L1839.65 578.061H1896.76C1958.65 578.061 1959.72 577.949 1963.89 572C1965.8 569.306 1966.04 559.653 1966.51 448.082C1966.99 334.716 1967.23 326.971 1969.14 324.389C1972.83 319.45 1975.81 318.777 1994.41 318.777C2013.49 318.777 2018.14 319.675 2021.36 324.165C2023.39 327.083 2023.51 333.705 2024.1 448.531C2024.7 567.959 2024.7 569.98 2027.08 572.449C2032.57 578.174 2031.73 578.061 2096.48 578.061C2154.3 578.061 2157.16 577.949 2160.86 575.817C2162.89 574.694 2165.27 572.562 2166.23 571.102C2167.42 569.082 2167.78 543.939 2168.01 450.664C2168.25 376.022 2168.85 331.236 2169.56 328.654C2170.28 326.409 2172.19 323.491 2173.98 322.256C2176.84 320.124 2178.63 319.899 2198.06 319.899C2215.59 319.899 2219.52 320.236 2221.91 321.695C2228.23 325.848 2227.99 322.032 2227.99 448.419C2227.99 577.613 2227.63 571.327 2235.38 575.817C2239.2 577.949 2241.22 578.061 2300.36 578.061H2361.29L2364.98 575.143C2367.01 573.572 2369.28 570.429 2369.99 568.184C2370.83 565.266 2371.06 526.317 2370.71 436.072C2370.23 297.001 2370.35 300.705 2363.31 277.808C2350.56 235.94 2314.79 203.277 2269.72 192.39C2254.7 188.686 2226.2 187.451 2209.86 189.696C2181.25 193.512 2152.16 206.196 2133.56 223.145L2129.15 227.073L2119.13 218.094C2104.82 205.073 2089.56 197.328 2067.38 191.828C2060.23 190.032 2053.55 189.359 2038.41 189.135C2027.56 188.91 2017.66 188.91 2016.35 189.247Z" fill="black"/>
<path d="M823.448 190.481C782.671 194.298 752.744 204.175 720.791 224.267C693.487 241.44 668.21 267.818 653.544 294.308C624.929 346.052 621.352 405.317 643.648 459.082C659.983 498.368 688.956 530.47 729.256 554.153C750.717 566.725 774.802 575.143 802.821 579.97C820.468 583 854.091 582.776 873.048 579.521C937.91 568.408 993.948 528.562 1022.44 473.113C1037.47 444.154 1043.31 419.123 1043.31 385.001C1043.31 360.307 1040.93 346.052 1032.82 322.93C1026.5 304.859 1021.25 294.083 1012.07 281.063C985.483 243.012 947.806 215.287 902.618 200.583C878.056 192.502 845.387 188.349 823.448 190.481ZM858.264 325.062C869.114 328.43 876.268 332.92 884.494 341.001C892.125 348.522 896.656 355.593 900.591 365.583C904.048 374.562 904.406 393.307 901.425 403.072C895.106 423.276 878.891 439.552 858.025 446.286C845.744 450.327 827.502 450.44 815.46 446.399C798.41 440.899 785.056 429.45 776.948 413.623C764.071 388.593 768.96 360.532 789.587 340.889C808.187 323.042 833.702 317.093 858.264 325.062Z" fill="black"/>
<path d="M9.33996 193.288C4.80919 194.41 0.755336 198.675 0.0399504 203.277C-0.675435 207.543 8.02842 240.542 41.4131 360.307C43.44 367.379 46.0631 376.695 47.2554 381.072C51.3092 395.552 58.1054 420.134 65.14 446.174C78.7323 495.674 97.8093 562.908 100.075 569.082C100.909 571.215 103.294 574.133 105.559 575.48L109.613 578.061H181.867C251.021 578.061 254.24 577.949 257.817 575.929C262.229 573.347 263.779 569.531 268.906 548.317C278.444 508.807 309.563 391.511 310.875 390.164C311.471 389.603 312.186 389.379 312.544 389.715C313.736 390.726 331.263 457.623 351.89 539.786C356.779 559.092 360.475 571.439 361.667 572.786C366.913 578.174 365.84 578.061 441.433 578.061H512.733L516.667 575.48C521.079 572.674 520.483 574.47 531.333 535.409C535.387 520.929 541.229 499.939 544.448 488.827C551.84 462.786 553.987 454.817 568.175 403.521C582.244 352.899 593.452 313.501 598.102 298.012C600.01 291.838 603.944 277.695 607.044 266.583C625.287 200.022 624.929 201.93 620.279 196.767L617.417 193.624L550.41 193.288C484.594 193.063 483.402 193.063 479.467 195.308C477.202 196.543 474.936 199.237 474.102 201.257C473.386 203.165 470.167 216.747 466.829 231.226C458.244 269.165 455.621 280.614 452.163 295.205C450.494 302.277 445.844 322.256 441.91 339.542C432.013 382.307 427.602 399.593 426.529 399.593C425.575 399.593 425.456 399.144 416.99 365.919C403.756 314.175 385.871 241.665 380.386 217.196C378.717 209.787 376.571 202.043 375.617 200.022C372.636 193.175 371.802 193.063 310.994 193.063H256.267L252.213 195.645C247.086 198.9 248.159 195.308 224.313 295.205C218.352 320.012 204.879 375.011 200.944 390.838C199.513 396.338 198.082 400.715 197.605 400.715C196.652 400.715 189.736 372.317 174.117 304.746C167.321 275.114 160.882 247.614 159.929 243.573C158.975 239.532 156.59 228.981 154.563 220.114C150.271 201.369 148.602 197.216 144.786 195.083C142.64 193.961 128.094 193.512 77.3016 193.063C41.7708 192.726 11.1284 192.839 9.33996 193.288Z" fill="black"/>
<path d="M1640.66 195.196C1638.63 196.43 1636.36 199.012 1635.53 201.032C1634.58 203.614 1634.22 253.787 1634.22 385.226C1634.22 584.01 1633.74 571.215 1641.61 575.817C1645.43 577.949 1647.45 578.061 1705.52 578.061C1770.74 578.061 1771.33 578.061 1775.75 571.776C1777.77 568.745 1777.89 560.776 1778.25 387.807C1778.49 262.318 1778.25 205.859 1777.3 202.941C1776.58 200.696 1774.43 197.553 1772.41 195.981L1768.71 193.063H1706.59C1647.57 193.063 1644.11 193.175 1640.66 195.196Z" fill="black"/>
<path d="M2553.61 406.103C2552.06 408.909 2533.81 452.348 2522.49 480.409C2517.36 493.092 2508.66 514.307 2503.17 527.551C2486.6 567.174 2474.56 596.357 2472.89 600.735L2471.34 605H2481.71H2492.08L2518.2 541.245C2532.62 506.225 2548.24 467.95 2553.13 456.276C2569.7 416.205 2573.76 406.103 2573.76 405.093C2573.76 404.532 2569.46 404.083 2564.22 404.083C2556.35 404.083 2554.56 404.419 2553.61 406.103Z" fill="black"/>
<path d="M3482.89 416.878C3452.37 423.837 3436.87 450.664 3436.99 496.123C3436.99 530.582 3444.26 552.021 3460.72 565.939C3474.91 577.949 3498.63 580.867 3520.09 573.347C3529.51 570.092 3541.32 559.092 3546.56 548.653C3557.65 526.653 3560.27 488.827 3552.64 460.654C3545.73 435.174 3531.18 420.358 3509.24 416.542C3500.3 414.97 3490.52 415.082 3482.89 416.878ZM3510.91 435.062C3513.54 436.072 3517.83 439.103 3520.45 441.909C3529.87 452.011 3534.04 469.296 3534.04 498.368C3533.92 525.755 3530.23 539.898 3520.45 550.449C3512.58 558.755 3499.47 562.01 3486.95 558.643C3474.67 555.163 3467.87 547.194 3462.98 530.021C3459.17 516.664 3458.57 483.776 3461.79 468.96C3466.56 447.072 3474.55 436.746 3489.09 433.266C3494.82 431.919 3504.71 432.817 3510.91 435.062Z" fill="black"/>
<path d="M3488.74 483.664C3482.77 487.143 3480.87 494.552 3484.2 501.174C3489.69 512.174 3508.17 509.368 3510.32 497.245C3512.46 485.46 3499.59 477.378 3488.74 483.664Z" fill="black"/>
<path d="M2741.75 417.776C2741.51 418.787 2736.27 503.419 2736.39 503.643C2736.63 503.868 2740.8 504.317 2745.81 504.654L2754.87 505.439L2759.64 501.399C2768.34 493.99 2775.85 491.409 2788.25 491.521C2798.86 491.521 2806.73 494.327 2812.93 500.052C2819.25 506.113 2821.76 513.296 2821.76 525.868C2821.76 542.256 2816.99 551.011 2805.3 556.398C2799.34 559.204 2797.2 559.541 2787.06 559.541C2776.69 559.541 2775.02 559.204 2767.86 555.837C2760.71 552.582 2753.8 546.858 2748.79 540.123L2746.88 537.541L2739.01 542.817C2734.72 545.735 2731.14 548.541 2731.14 548.878C2731.14 550.225 2737.94 558.531 2742.35 562.684C2750.93 570.766 2761.55 575.031 2778.48 577.051C2798.98 579.521 2819.13 573.908 2830.34 562.572C2840.36 552.582 2844.41 541.582 2844.41 524.745C2844.41 507.684 2839.76 496.123 2829.15 486.358C2818.9 476.817 2802.32 472.327 2786.58 474.684C2776.81 476.031 2764.65 481.419 2760.47 486.021C2756.18 490.96 2754.75 490.399 2755.58 484.001C2755.94 481.082 2756.78 469.184 2757.37 457.511C2757.97 445.95 2758.68 436.185 2758.92 435.96C2759.16 435.736 2773.83 435.399 2791.47 435.287C2809.12 435.174 2826.41 434.95 2829.87 434.613L2836.07 434.164V425.858V417.552H2788.97C2763.1 417.552 2741.87 417.664 2741.75 417.776Z" fill="black"/>
<path d="M2873.03 440.001V462.45H2882.56H2891.98L2892.34 448.644L2892.7 434.95L2926.56 434.613C2945.28 434.501 2960.9 434.725 2961.38 435.174C2961.85 435.736 2958.75 443.368 2954.46 452.348C2944.56 473.113 2897.95 571.439 2897.23 573.347C2896.75 574.47 2899.14 574.694 2908.32 574.47L2920 574.133L2938.6 534.847C2948.86 513.184 2963.52 482.205 2971.15 465.817L2985.1 436.072V426.756V417.552H2929.06H2873.03V440.001Z" fill="black"/>
<path d="M3014.08 476.144C3014.67 537.653 3014.91 540.347 3020.4 551.909C3028.39 569.082 3049.49 579.184 3074.05 577.725C3102.07 575.929 3119.36 560.888 3123.41 534.735C3124.01 530.47 3124.6 502.521 3124.6 472.215V417.44L3113.87 417.776L3103.26 418.113L3102.79 475.919C3102.43 539.449 3102.31 540.011 3094.92 549.664C3089.43 556.735 3082.16 559.541 3069.16 559.541C3059.62 559.541 3057.72 559.092 3052.47 556.398C3049.25 554.715 3045.08 551.347 3043.29 549.102C3036.73 540.347 3036.49 537.653 3036.14 475.133L3035.78 417.552H3024.57H3013.48L3014.08 476.144Z" fill="black"/>
<path d="M3160.73 421.705C3161.21 424.062 3161.56 459.419 3161.56 500.276V574.694H3189.7C3220.46 574.694 3229.41 573.572 3241.45 568.072C3255.04 561.898 3266.01 547.531 3271.38 528.674C3273.76 520.256 3274.12 516.439 3274.24 496.123C3274.24 475.47 3274 472.215 3271.5 464.358C3264.22 440.45 3251.46 426.98 3229.65 420.134C3225.47 418.787 3216.65 418.225 3192.09 417.889L3160.01 417.327L3160.73 421.705ZM3227.14 438.991C3236.2 443.031 3240.5 446.623 3244.79 454.368C3250.99 465.368 3252.66 473.899 3252.66 495.562C3252.78 533.164 3244.19 549.776 3221.78 555.5C3219.15 556.174 3209.38 556.959 3200.08 557.408L3183.03 558.194V496.684V435.287L3201.86 435.735C3219.03 436.072 3221.06 436.297 3227.14 438.991Z" fill="black"/>
<path d="M3336.48 423.613C3333.5 426.98 3324.79 434.838 3317.16 441.235L3303.33 452.909L3303.69 460.205L3304.05 467.501L3308.1 467.613C3311.56 467.725 3313.7 466.49 3321.22 460.429C3326.22 456.388 3335.17 448.531 3341.25 443.031C3348.88 435.848 3352.45 433.378 3352.93 434.501C3353.29 435.399 3353.41 463.348 3353.29 496.684L3352.93 557.296L3330.04 557.633L3307.03 557.857V566.276V574.694H3361.87H3416.72V566.276V557.857H3395.26H3373.8V487.705V417.552H3357.94H3342.08L3336.48 423.613Z" fill="black"/>
</svg>
